<svg width="165" height="165" viewBox="0 0 165 165" fill="none" xmlns="http://www.w3.org/2000/svg">
<circle cx="82.5" cy="82.5" r="82.5" fill="#2E8A99"/>
<path fill-rule="evenodd" clip-rule="evenodd" d="M68.4066 48.9537C69.5083 46.621 71.8847 45 74.631 45H90.369C93.1153 45 95.4878 46.621 96.5934 48.9537C99.2807 48.9774 101.378 49.1 103.251 49.8354C105.486 50.7142 107.431 52.2077 108.861 54.145C110.305 56.0981 110.986 58.6008 111.914 62.0445L114.834 72.8066L115.935 76.1316L116.03 76.2503C119.575 80.8129 117.887 87.5974 114.511 101.163C112.363 109.794 111.293 114.107 108.09 116.622C104.887 119.132 100.461 119.132 91.6084 119.132H73.3916C64.539 119.132 60.1127 119.132 56.91 116.622C53.7073 114.107 52.6332 109.794 50.4889 101.163C47.1131 87.5974 45.4252 80.8129 48.9702 76.2503L49.0646 76.1316L50.1662 72.8066L53.0856 62.0445C54.0181 58.6008 54.6988 56.0942 56.1388 54.141C57.5699 52.2052 59.5142 50.7131 61.7494 49.8354C63.6222 49.1 65.7154 48.9735 68.4066 48.9537ZM68.4145 54.8922C65.8098 54.9199 64.7633 55.0187 63.8977 55.3588C62.6936 55.8319 61.6464 56.6362 60.876 57.6796C60.1835 58.6166 59.7743 59.9253 58.6333 64.1439L56.3906 72.4033C60.4038 71.6877 65.8885 71.6877 73.3877 71.6877H91.6084C99.1115 71.6877 104.592 71.6877 108.605 72.3993L106.367 64.14C105.226 59.9214 104.817 58.6127 104.124 57.6756C103.354 56.6323 102.306 55.828 101.102 55.3548C100.237 55.0148 99.1902 54.9159 96.5855 54.8883C96.0269 56.0698 95.1463 57.068 94.046 57.7671C92.9458 58.4662 91.6708 58.8375 90.369 58.838H74.631C73.3296 58.8379 72.055 58.4672 70.9547 57.7688C69.8545 57.0704 68.9737 56.073 68.4145 54.8922Z" fill="white"/>
</svg>
