<svg width="114" height="114" viewBox="0 0 114 114" fill="none" xmlns="http://www.w3.org/2000/svg">
<circle cx="57" cy="57" r="57" fill="#2E8A99"/>
<path fill-rule="evenodd" clip-rule="evenodd" d="M34.1172 57C34.1172 63.0693 36.5282 68.8901 40.8199 73.1818C45.1116 77.4735 50.9324 79.8846 57.0018 79.8846C63.0712 79.8846 68.892 77.4735 73.1837 73.1818C77.4754 68.8901 79.8864 63.0693 79.8864 57C79.8864 50.9306 77.4754 45.1098 73.1837 40.8181C68.892 36.5264 63.0712 34.1154 57.0018 34.1154C50.9324 34.1154 45.1116 36.5264 40.8199 40.8181C36.5282 45.1098 34.1172 50.9306 34.1172 57ZM75.9633 57C75.9633 62.0289 73.9656 66.8518 70.4096 70.4078C66.8537 73.9638 62.0307 75.9615 57.0018 75.9615C51.9729 75.9615 47.1499 73.9638 43.594 70.4078C40.038 66.8518 38.0403 62.0289 38.0403 57C38.0403 51.9711 40.038 47.1481 43.594 43.5921C47.1499 40.0362 51.9729 38.0384 57.0018 38.0384C62.0307 38.0384 66.8537 40.0362 70.4096 43.5921C73.9656 47.1481 75.9633 51.9711 75.9633 57Z" fill="white"/>
<path fill-rule="evenodd" clip-rule="evenodd" d="M47.1914 57.0001C47.1914 68.8269 51.0909 78.5771 56.9991 78.5771C62.9073 78.5771 66.8068 68.8269 66.8068 57.0001C66.8068 45.1734 62.9073 35.4232 56.9991 35.4232C51.0909 35.4232 47.1914 45.1734 47.1914 57.0001ZM62.8837 57.0001C62.8837 66.8392 59.7583 74.654 56.9991 74.654C54.2399 74.654 51.1145 66.8392 51.1145 57.0001C51.1145 47.1611 54.2399 39.3463 56.9991 39.3463C59.7583 39.3463 62.8837 47.1611 62.8837 57.0001Z" fill="white"/>
<path d="M40.2695 45.1443L42.9005 42.236C43.1621 42.4713 43.4472 42.7067 43.7506 42.9343C47.0747 45.4241 52.3813 46.962 58.1744 46.962C63.1201 46.962 67.7258 45.8452 71.0709 43.9333C71.8764 43.473 72.593 42.9735 73.2129 42.4426L75.7602 45.4267C74.9092 46.1486 73.9914 46.7879 73.0193 47.336C69.0544 49.6061 63.7766 50.8824 58.1744 50.8824C51.5784 50.8824 45.4506 49.1092 41.3967 46.0727C41.0069 45.7807 40.6308 45.4709 40.2695 45.1443ZM40.2695 68.8972L42.9005 71.8055C43.1621 71.5675 43.4472 71.3347 43.7506 71.1072C47.0747 68.6173 52.3813 67.0795 58.1744 67.0795C63.1201 67.0795 67.7258 68.1963 71.0709 70.1081C71.8764 70.5684 72.593 71.068 73.2129 71.5989L75.7602 68.6147C74.9081 67.8942 73.9905 67.255 73.0193 66.7055C69.0544 64.4353 63.7766 63.159 58.1744 63.159C51.5784 63.159 45.4506 64.9323 41.3967 67.9687C41.0069 68.2607 40.6308 68.5706 40.2695 68.8972ZM35.4258 58.9613V55.0383H78.5796V58.9613H35.4258Z" fill="white"/>
<path fill-rule="evenodd" clip-rule="evenodd" d="M57 85.7692C72.8885 85.7692 85.7692 72.8885 85.7692 57C85.7692 41.1115 72.8885 28.2308 57 28.2308C41.1115 28.2308 28.2308 41.1115 28.2308 57C28.2308 72.8885 41.1115 85.7692 57 85.7692ZM57 91C75.7785 91 91 75.7785 91 57C91 38.2215 75.7785 23 57 23C38.2215 23 23 38.2215 23 57C23 75.7785 38.2215 91 57 91Z" fill="white"/>
</svg>
