<svg width="114" height="114" viewBox="0 0 114 114" fill="none" xmlns="http://www.w3.org/2000/svg">
<circle cx="57" cy="57" r="57" fill="#2E8A99"/>
<path d="M32.7 28H75.9C76.6161 28 77.3028 28.2817 77.8092 28.7831C78.3155 29.2845 78.6 29.9646 78.6 30.6737V41.3685C78.6 42.0776 78.3155 42.7577 77.8092 43.2591C77.3028 43.7605 76.6161 44.0422 75.9 44.0422H32.7C31.9839 44.0422 31.2972 43.7605 30.7908 43.2591C30.2845 42.7577 30 42.0776 30 41.3685V30.6737C30 29.9646 30.2845 29.2845 30.7908 28.7831C31.2972 28.2817 31.9839 28 32.7 28ZM32.7 49.3896H75.9C76.6161 49.3896 77.3028 49.6713 77.8092 50.1727C78.3155 50.6741 78.6 51.3542 78.6 52.0633V53.8547L71.85 50.8869L54.3 58.5871V65.4318H32.7C31.9839 65.4318 31.2972 65.1501 30.7908 64.6487C30.2845 64.1473 30 63.4672 30 62.7581V52.0633C30 51.3542 30.2845 50.6741 30.7908 50.1727C31.2972 49.6713 31.9839 49.3896 32.7 49.3896ZM32.7 70.7792H54.3C54.462 76.795 57 82.5435 60.942 86.8214H32.7C31.9839 86.8214 31.2972 86.5397 30.7908 86.0383C30.2845 85.5369 30 84.8568 30 84.1477V73.4529C30 72.7438 30.2845 72.0637 30.7908 71.5623C31.2972 71.0609 31.9839 70.7792 32.7 70.7792ZM46.2 38.6948H48.9V33.3474H46.2V38.6948ZM46.2 60.0844H48.9V54.737H46.2V60.0844ZM46.2 81.474H48.9V76.1266H46.2V81.474ZM35.4 33.3474V38.6948H40.8V33.3474H35.4ZM35.4 54.737V60.0844H40.8V54.737H35.4ZM35.4 76.1266V81.474H40.8V76.1266H35.4ZM71.85 57.4107L84 62.7581V70.7792C84 78.2121 78.816 85.137 71.85 86.8214C64.884 85.137 59.7 78.2121 59.7 70.7792V62.7581L71.85 57.4107ZM71.85 62.5977L65.1 65.5922V72.7043C65.1 76.8218 67.989 80.6719 71.85 81.6344V62.5977Z" fill="white"/>
</svg>
