<svg width="114" height="114" viewBox="0 0 114 114" fill="none" xmlns="http://www.w3.org/2000/svg">
<circle cx="57" cy="57" r="57" fill="#2E8A99"/>
<path d="M77.2498 54.1564C76.4285 53.0897 75.4287 52.1652 74.5003 51.2407C72.1079 49.1074 69.3941 47.5784 67.1088 45.3384C61.7883 40.1471 60.61 31.578 64.0022 25C60.61 25.8178 57.6462 27.6667 55.111 29.6935C45.8627 37.0892 42.2205 50.1385 46.5768 61.3388C46.7196 61.6944 46.8625 62.0499 46.8625 62.5122C46.8625 63.2944 46.3269 64.0056 45.6127 64.29C44.7914 64.6456 43.9344 64.4322 43.256 63.8633C43.0521 63.6955 42.8824 63.4903 42.7561 63.2589C38.7211 58.1743 38.0784 50.8852 40.7922 45.0539C34.829 49.8896 31.5796 58.0676 32.0438 65.7834C32.258 67.5612 32.4723 69.339 33.0793 71.1169C33.5792 73.2503 34.5433 75.3837 35.6145 77.2682C39.471 83.4194 46.1483 87.8285 53.3256 88.7174C60.967 89.6774 69.1441 88.2907 75.0002 83.0283C81.5347 77.1259 83.82 67.6679 80.4635 59.561L79.9993 58.6365C79.2494 57.0009 77.2498 54.1564 77.2498 54.1564ZM65.9661 76.557C64.9663 77.4104 63.3238 78.3349 62.0383 78.6904C58.039 80.1127 54.0397 78.1215 51.683 75.7748C55.9322 74.7792 58.4675 71.6502 59.2174 68.4857C59.8244 65.6412 58.6817 63.2944 58.2175 60.5566C57.7891 57.9254 57.8605 55.6853 58.8246 53.2319C59.503 54.5831 60.2172 55.9342 61.0742 57.0009C63.8237 60.5566 68.1443 62.1211 69.0727 66.9568C69.2155 67.4545 69.2869 67.9523 69.2869 68.4857C69.3941 71.4013 68.1086 74.6014 65.9661 76.557Z" fill="white"/>
</svg>
