<svg width="114" height="114" viewBox="0 0 114 114" fill="none" xmlns="http://www.w3.org/2000/svg">
<circle cx="57" cy="57" r="57" fill="#2E8A99"/>
<path d="M58.375 38L48.625 52.625H55.125V62.375L64.875 47.75H58.375V38Z" fill="white"/>
<path fill-rule="evenodd" clip-rule="evenodd" d="M79.3532 49.8186C78.8601 54.0036 77.1778 57.9596 74.5058 61.218C72.9426 63.1274 68.9695 68.5825 68.1245 72.125H45.3745C44.5295 68.5793 40.5515 63.1241 38.9882 61.2131C36.3175 57.9532 34.6369 53.9961 34.1457 49.8105C33.6614 45.6339 34.3903 41.4061 36.2452 37.6328C38.1176 33.8306 41.028 30.6362 44.64 28.419C48.2832 26.1801 52.4765 24.9965 56.7527 25C61.0395 25 65.2385 26.1863 68.8655 28.4239C72.4765 30.6419 75.3858 33.8369 77.257 37.6393C79.1111 41.4134 79.8388 45.6418 79.3532 49.8186ZM65.8218 68.875H47.6755C46.9832 67.2776 46.0586 65.677 45.1973 64.3169C44.064 62.5295 42.8314 60.807 41.5053 59.1575C39.2274 56.3782 37.7939 53.0041 37.3746 49.4351C36.9618 45.8783 37.5824 42.2778 39.1621 39.0644C40.7645 35.813 43.2547 33.0816 46.3446 31.1864C49.4753 29.2631 53.0784 28.2466 56.7527 28.25C60.4415 28.25 64.049 29.2721 67.1608 31.1913C70.2496 33.0869 72.7386 35.8182 74.3401 39.0693C75.919 42.2835 76.5385 45.8846 76.1243 49.4416C75.7035 53.0098 74.2688 56.3827 71.9903 59.1608C70.6636 60.8093 69.4315 62.5319 68.3 64.3201C67.4387 65.6803 66.5141 67.2776 65.8218 68.875Z" fill="white"/>
<path d="M45.375 77C45.375 76.569 45.5462 76.1557 45.851 75.851C46.1557 75.5462 46.569 75.375 47 75.375H66.5C66.931 75.375 67.3443 75.5462 67.649 75.851C67.9538 76.1557 68.125 76.569 68.125 77C68.125 77.431 67.9538 77.8443 67.649 78.149C67.3443 78.4538 66.931 78.625 66.5 78.625H47C46.569 78.625 46.1557 78.4538 45.851 78.149C45.5462 77.8443 45.375 77.431 45.375 77Z" fill="white"/>
<path fill-rule="evenodd" clip-rule="evenodd" d="M45.375 81.875H68.125V86.75C68.125 87.612 67.7826 88.4386 67.1731 89.0481C66.5636 89.6576 65.737 90 64.875 90H48.625C47.763 90 46.9364 89.6576 46.3269 89.0481C45.7174 88.4386 45.375 87.612 45.375 86.75V81.875ZM48.625 85.125H64.875V86.75H48.625V85.125Z" fill="white"/>
</svg>
