<svg width="114" height="114" viewBox="0 0 114 114" fill="none" xmlns="http://www.w3.org/2000/svg">
<circle cx="57" cy="57" r="57" fill="#2E8A99"/>
<path d="M72.2222 27H42.2778C41.1432 27 40.0552 27.4507 39.2529 28.2529C38.4507 29.0552 38 30.1432 38 31.2778V82.6111C38 83.7456 38.4507 84.8337 39.2529 85.636C40.0552 86.4382 41.1432 86.8889 42.2778 86.8889H72.2222C73.3568 86.8889 74.4448 86.4382 75.2471 85.636C76.0493 84.8337 76.5 83.7456 76.5 82.6111V31.2778C76.5 30.1432 76.0493 29.0552 75.2471 28.2529C74.4448 27.4507 73.3568 27 72.2222 27ZM42.2778 31.2778H72.2222V69.7778H42.2778V31.2778ZM42.2778 82.6111V74.0556H72.2222V82.6111H42.2778Z" fill="white"/>
<path d="M55.1094 76.1943H59.3872V80.4721H55.1094V76.1943Z" fill="white"/>
</svg>
