<svg width="114" height="114" viewBox="0 0 114 114" fill="none" xmlns="http://www.w3.org/2000/svg">
<circle cx="57" cy="57" r="57" fill="#2E8A99"/>
<path d="M50.9172 27.8198C52.0898 25.4748 54.2044 23 57.5 23C60.7956 23 62.9102 25.479 64.0827 27.8198C65.2929 30.2444 65.875 33.1798 65.875 35.5625V51.0186L87.5244 61.8433C88.5686 62.3646 89.4469 63.1665 90.0608 64.1591C90.6748 65.1517 91 66.2958 91 67.4629V73.25C90.9999 73.5539 90.9336 73.8542 90.8057 74.1299C90.6778 74.4056 90.4915 74.6502 90.2596 74.8466C90.0276 75.0431 89.7558 75.1867 89.4628 75.2675C89.1698 75.3483 88.8627 75.3643 88.5629 75.3144L65.5023 71.4703L63.932 80.9048L69.4511 86.4239C69.7447 86.7167 69.9447 87.0901 70.0258 87.4967C70.1069 87.9034 70.0654 88.325 69.9067 88.708C69.7479 89.091 69.4789 89.4183 69.1339 89.6483C68.7889 89.8783 68.3834 90.0007 67.9688 90H47.0312C46.6166 90.0007 46.2111 89.8783 45.8661 89.6483C45.5211 89.4183 45.2521 89.091 45.0933 88.708C44.9346 88.325 44.8931 87.9034 44.9742 87.4967C45.0553 87.0901 45.2553 86.7167 45.5489 86.4239L51.0722 80.9048L49.4977 71.4703L26.4371 75.3144C26.1373 75.3643 25.8302 75.3483 25.5372 75.2675C25.2443 75.1867 24.9724 75.0431 24.7404 74.8466C24.5085 74.6502 24.3222 74.4056 24.1943 74.1299C24.0664 73.8542 24.0001 73.5539 24 73.25V67.4629C24 66.2958 24.3253 65.1517 24.9392 64.1591C25.5531 63.1665 26.4314 62.3646 27.4756 61.8433L49.125 51.0186V35.5625C49.125 33.184 49.7113 30.2402 50.9172 27.8198ZM54.6609 29.6958C53.7773 31.4587 53.3125 33.7577 53.3125 35.5625V52.3125C53.3125 52.701 53.2044 53.0819 53.0003 53.4124C52.7962 53.743 52.5041 54.0103 52.1567 54.1843L29.3433 65.5911C28.9959 65.7651 28.7038 66.0324 28.4997 66.3629C28.2956 66.6935 28.1875 67.0744 28.1875 67.4629V70.7794L50.8754 66.9981C51.4222 66.9072 51.9828 67.0369 52.4342 67.3587C52.8856 67.6806 53.1909 68.1683 53.2832 68.7149L55.3769 81.2774C55.4324 81.6071 55.4081 81.9453 55.3061 82.2636C55.2041 82.582 55.0274 82.8713 54.7907 83.1074L52.0898 85.8125H62.9186L60.2093 83.1074C59.9732 82.8717 59.7969 82.5831 59.6949 82.2656C59.5929 81.948 59.5683 81.6106 59.6231 81.2816L61.7168 68.7191C61.762 68.4477 61.8603 68.1878 62.006 67.9543C62.1517 67.7208 62.342 67.5184 62.566 67.3586C62.79 67.1987 63.0434 67.0846 63.3115 67.0227C63.5797 66.9609 63.8574 66.9525 64.1288 66.9981L86.8125 70.7794V67.4629C86.8125 67.0744 86.7044 66.6935 86.5003 66.3629C86.2962 66.0324 86.0041 65.7651 85.6567 65.5911L62.8433 54.1843C62.4959 54.0103 62.2038 53.743 61.9997 53.4124C61.7956 53.0819 61.6875 52.701 61.6875 52.3125V35.5625C61.6875 33.7535 61.2269 31.4629 60.3391 29.6958C59.4179 27.8533 58.3919 27.1875 57.5 27.1875C56.6081 27.1875 55.5821 27.8491 54.6609 29.6958Z" fill="white"/>
</svg>
