<svg width="114" height="114" viewBox="0 0 114 114" fill="none" xmlns="http://www.w3.org/2000/svg">
<circle cx="57" cy="57" r="57" fill="#2E8A99"/>
<path fill-rule="evenodd" clip-rule="evenodd" d="M57 83.4118C57.9283 83.4118 58.8185 83.0337 59.4749 82.3608C60.1312 81.6879 60.5 80.7752 60.5 79.8235C60.5 77.911 59.3555 75.5715 57.7175 73.3647C57.476 73.0418 57.2345 72.735 57 72.4461C56.7655 72.7332 56.524 73.0418 56.2825 73.3647C54.6463 75.5715 53.5 77.911 53.5 79.8235C53.5 80.7752 53.8687 81.6879 54.5251 82.3608C55.1815 83.0337 56.0717 83.4118 57 83.4118ZM57 87C58.8565 87 60.637 86.2439 61.9497 84.8981C63.2625 83.5522 64 81.7268 64 79.8235C64 73.5441 57 67.2647 57 67.2647C57 67.2647 50 73.5441 50 79.8235C50 81.7268 50.7375 83.5522 52.0503 84.8981C53.363 86.2439 55.1435 87 57 87ZM53.5 33.1765C53.5 32.2248 53.8687 31.3121 54.5251 30.6392C55.1815 29.9663 56.0717 29.5882 57 29.5882C57.9283 29.5882 58.8185 29.9663 59.4749 30.6392C60.1312 31.3121 60.5 32.2248 60.5 33.1765V54.7059H53.5V33.1765ZM51.75 58.2941V61.8824H62.25V58.2941H51.75ZM65.75 60.0882V65.4706H48.25V60.0882H22V56.5H23.75V51.1176C23.75 50.166 24.1187 49.2533 24.7751 48.5804C25.4315 47.9075 26.3217 47.5294 27.25 47.5294H32.5V45.7353H27.25V36.7647C27.25 35.813 27.6187 34.9004 28.2751 34.2274C28.9315 33.5545 29.8217 33.1765 30.75 33.1765H43C43.9283 33.1765 44.8185 33.5545 45.4749 34.2274C46.1313 34.9004 46.5 35.813 46.5 36.7647V45.7353H41.25V47.5294H50V33.1765C50 31.2732 50.7375 29.4478 52.0503 28.1019C53.363 26.7561 55.1435 26 57 26C58.8565 26 60.637 26.7561 61.9497 28.1019C63.2625 29.4478 64 31.2732 64 33.1765V47.5294H72.75V45.7353H67.5V36.7647C67.5 35.813 67.8688 34.9004 68.5251 34.2274C69.1815 33.5545 70.0717 33.1765 71 33.1765H83.25C84.1783 33.1765 85.0685 33.5545 85.7249 34.2274C86.3813 34.9004 86.75 35.813 86.75 36.7647V45.7353H81.5V47.5294H86.75C87.6783 47.5294 88.5685 47.9075 89.2249 48.5804C89.8813 49.2533 90.25 50.166 90.25 51.1176V56.5H92V60.0882H65.75ZM86.75 56.5V51.1176H64V54.7059H65.75V56.5H86.75ZM78 47.5294V45.7353H76.25V47.5294H78ZM48.25 54.7059V56.5H27.25V51.1176H50V54.7059H48.25ZM37.75 47.5294H36V45.7353H37.75V47.5294ZM43 36.7647H30.75V42.1471H32.5V38.5588H36V42.1471H37.75V38.5588H41.25V42.1471H43V36.7647ZM71 36.7647H83.25V42.1471H81.5V38.5588H78V42.1471H76.25V38.5588H72.75V42.1471H71V36.7647Z" fill="white"/>
</svg>
