<svg width="94" height="94" viewBox="0 0 94 94" fill="none" xmlns="http://www.w3.org/2000/svg">
<path d="M47 0C59.4652 0 71.4198 4.95177 80.234 13.766C89.0482 22.5802 94 34.5348 94 47C94 59.4652 89.0482 71.4198 80.234 80.234C71.4198 89.0482 59.4652 94 47 94C34.5348 94 22.5802 89.0482 13.766 80.234C4.95177 71.4198 0 59.4652 0 47C0 34.5348 4.95177 22.5802 13.766 13.766C22.5802 4.95177 34.5348 0 47 0ZM47 87.2857C57.6844 87.2857 67.9313 83.0413 75.4863 75.4863C83.0413 67.9313 87.2857 57.6844 87.2857 47C87.2857 36.3156 83.0413 26.0687 75.4863 18.5137C67.9313 10.9587 57.6844 6.71429 47 6.71429C36.3156 6.71429 26.0687 10.9587 18.5137 18.5137C10.9587 26.0687 6.71429 36.3156 6.71429 47C6.71429 57.6844 10.9587 67.9313 18.5137 75.4863C26.0687 83.0413 36.3156 87.2857 47 87.2857ZM52.0357 68.8214C52.0357 70.157 51.5052 71.4378 50.5608 72.3822C49.6164 73.3266 48.3356 73.8571 47 73.8571C45.6644 73.8571 44.3836 73.3266 43.4392 72.3822C42.4948 71.4378 41.9643 70.157 41.9643 68.8214C41.9643 67.4859 42.4948 66.205 43.4392 65.2606C44.3836 64.3163 45.6644 63.7857 47 63.7857C48.3356 63.7857 49.6164 64.3163 50.5608 65.2606C51.5052 66.205 52.0357 67.4859 52.0357 68.8214ZM47 20.1429C47.8904 20.1429 48.7443 20.4966 49.3739 21.1261C50.0034 21.7557 50.3571 22.6096 50.3571 23.5V53.7143C50.3571 54.6047 50.0034 55.4586 49.3739 56.0881C48.7443 56.7177 47.8904 57.0714 47 57.0714C46.1096 57.0714 45.2557 56.7177 44.6261 56.0881C43.9966 55.4586 43.6429 54.6047 43.6429 53.7143V23.5C43.6429 22.6096 43.9966 21.7557 44.6261 21.1261C45.2557 20.4966 46.1096 20.1429 47 20.1429Z" fill="#8F8F8F"/>
</svg>
