<svg width="165" height="165" viewBox="0 0 165 165" fill="none" xmlns="http://www.w3.org/2000/svg">
<circle cx="82.5" cy="82.5" r="82.5" fill="#2E8A99"/>
<path d="M75.2108 47L67.4216 54.8356V62.6712H55.7377C51.2589 62.6712 48.4159 66.589 47.9485 70.5068L44.0539 109.685C43.5865 113.603 46.157 117.521 51.8431 117.521H114.157C119.843 117.521 122.413 113.603 121.946 109.685L118.052 70.5068C117.584 66.589 114.391 62.6712 110.262 62.6712H98.5784V54.8356L90.7892 47H75.2108ZM75.2108 54.8356H90.7892V62.6712H75.2108V54.8356ZM79.1054 74.4247H86.8946V86.1781H98.5784V94.0137H86.8946V105.767H79.1054V94.0137H67.4216V86.1781H79.1054V74.4247Z" fill="white"/>
</svg>
