<svg width="165" height="165" viewBox="0 0 165 165" fill="none" xmlns="http://www.w3.org/2000/svg">
<circle cx="82.5" cy="82.5" r="82.5" fill="#2E8A99"/>
<path fill-rule="evenodd" clip-rule="evenodd" d="M57 54.9931C57 53.1384 57.7471 51.3597 59.0769 50.0482C60.4067 48.7368 62.2103 48 64.0909 48H101.909C103.79 48 105.593 48.7368 106.923 50.0482C108.253 51.3597 109 53.1384 109 54.9931V110.938C109 112.793 108.253 114.571 106.923 115.883C105.593 117.194 103.79 117.931 101.909 117.931H64.0909C62.2103 117.931 60.4067 117.194 59.0769 115.883C57.7471 114.571 57 112.793 57 110.938V54.9931ZM75.9091 103.945H90.0909V99.2828H75.9091V103.945Z" fill="white"/>
</svg>
