<svg width="165" height="165" viewBox="0 0 165 165" fill="none" xmlns="http://www.w3.org/2000/svg">
<circle cx="82.5" cy="82.5" r="82.5" fill="#2E8A99"/>
<path d="M87.825 102.912H93.15V97.5875H87.825V102.912ZM97.5875 102.912H102.912V97.5875H97.5875V102.912ZM107.35 102.912H112.675V97.5875H107.35V102.912ZM100.25 118C95.3392 118 91.1525 116.269 87.6901 112.806C84.2277 109.344 82.4976 105.158 82.5 100.25C82.5 95.3392 84.2312 91.1525 87.6936 87.6901C91.1561 84.2277 95.3415 82.4976 100.25 82.5C105.161 82.5 109.347 84.2312 112.81 87.6936C116.272 91.1561 118.002 95.3415 118 100.25C118 105.161 116.269 109.347 112.806 112.81C109.344 116.272 105.158 118.002 100.25 118ZM61.2 68.3H96.7V61.2H61.2V68.3ZM77.7962 110.9H47V47H110.9V77.885C109.184 77.0567 107.453 76.4354 105.706 76.0212C103.96 75.6071 102.141 75.4 100.25 75.4C99.5992 75.4 98.9921 75.4154 98.4288 75.4461C97.8656 75.4769 97.2893 75.5503 96.7 75.6662V75.4H61.2V82.5H82.9437C81.8787 83.5058 80.9167 84.6004 80.0576 85.7837C79.1985 86.9671 78.4447 88.2392 77.7962 89.6H61.2V96.7H75.6662C75.5479 97.2917 75.4734 97.8691 75.4426 98.4324C75.4118 98.9957 75.3976 99.6015 75.4 100.25C75.4 102.202 75.5775 104.022 75.9325 105.71C76.2875 107.397 76.9088 109.127 77.7962 110.9Z" fill="white"/>
</svg>
