<svg xmlns="http://www.w3.org/2000/svg" width="676" height="40" fill="none" viewBox="0 0 676 40">
  <path fill="#2E8A99" d="M20 0c1.836 0 3.607.234 5.313.703a18.913 18.913 0 0 1 4.765 2.031 21.913 21.913 0 0 1 4.043 3.125 19.038 19.038 0 0 1 3.145 4.043 20.138 20.138 0 0 1 2.011 4.786c.47 1.692.71 3.463.723 5.312a19.96 19.96 0 0 1-.703 5.313 18.915 18.915 0 0 1-2.031 4.765 21.913 21.913 0 0 1-3.125 4.043 19.038 19.038 0 0 1-4.043 3.145 20.14 20.14 0 0 1-4.785 2.011A20.31 20.31 0 0 1 20 40a19.96 19.96 0 0 1-5.313-.703 18.916 18.916 0 0 1-4.765-2.031 21.913 21.913 0 0 1-4.043-3.125 19.039 19.039 0 0 1-3.145-4.043 20.142 20.142 0 0 1-2.011-4.785A20.358 20.358 0 0 1 0 20c0-1.836.234-3.607.703-5.313a18.913 18.913 0 0 1 2.031-4.765A21.913 21.913 0 0 1 5.86 5.879a19.04 19.04 0 0 1 4.043-3.145A20.14 20.14 0 0 1 14.688.723 20.358 20.358 0 0 1 20 0Zm11.777 13.379-2.656-2.656-12.871 12.87-5.371-5.37-2.656 2.656 8.027 8.027L31.777 13.38ZM232 0c1.836 0 3.607.234 5.312.703a18.906 18.906 0 0 1 4.766 2.031 21.926 21.926 0 0 1 4.043 3.125 19.06 19.06 0 0 1 3.145 4.043A20.124 20.124 0 0 1 252 20c0 1.836-.234 3.607-.703 5.313a18.936 18.936 0 0 1-2.031 4.765 21.935 21.935 0 0 1-3.125 4.043 19.05 19.05 0 0 1-4.043 3.145 20.15 20.15 0 0 1-4.786 2.011c-1.692.47-3.463.71-5.312.723-1.836 0-3.607-.234-5.312-.703a18.909 18.909 0 0 1-4.766-2.031 21.927 21.927 0 0 1-4.043-3.125 19.06 19.06 0 0 1-3.145-4.043A20.125 20.125 0 0 1 212 20c0-1.836.234-3.607.703-5.313a18.937 18.937 0 0 1 2.031-4.765 21.935 21.935 0 0 1 3.125-4.043 19.052 19.052 0 0 1 4.043-3.145 20.153 20.153 0 0 1 4.786-2.011A20.35 20.35 0 0 1 232 0Zm11.777 13.379-2.656-2.656-12.871 12.87-5.371-5.37-2.656 2.656 8.027 8.027 15.527-15.527ZM444 0c1.836 0 3.607.234 5.312.703a18.906 18.906 0 0 1 4.766 2.031 21.926 21.926 0 0 1 4.043 3.125 19.06 19.06 0 0 1 3.145 4.043A20.124 20.124 0 0 1 464 20c0 1.836-.234 3.607-.703 5.313a18.936 18.936 0 0 1-2.031 4.765 21.935 21.935 0 0 1-3.125 4.043 19.05 19.05 0 0 1-4.043 3.145 20.15 20.15 0 0 1-4.786 2.011c-1.692.47-3.463.71-5.312.723-1.836 0-3.607-.234-5.312-.703a18.909 18.909 0 0 1-4.766-2.031 21.927 21.927 0 0 1-4.043-3.125 19.06 19.06 0 0 1-3.145-4.043A20.125 20.125 0 0 1 424 20c0-1.836.234-3.607.703-5.313a18.937 18.937 0 0 1 2.031-4.765 21.935 21.935 0 0 1 3.125-4.043 19.052 19.052 0 0 1 4.043-3.145 20.153 20.153 0 0 1 4.786-2.011A20.35 20.35 0 0 1 444 0Zm11.777 13.379-2.656-2.656-12.871 12.87-5.371-5.37-2.656 2.656 8.027 8.027 15.527-15.527ZM656 0c1.836 0 3.607.234 5.312.703a18.906 18.906 0 0 1 4.766 2.031 21.926 21.926 0 0 1 4.043 3.125 19.06 19.06 0 0 1 3.145 4.043A20.124 20.124 0 0 1 676 20c0 1.836-.234 3.607-.703 5.313a18.936 18.936 0 0 1-2.031 4.765 21.935 21.935 0 0 1-3.125 4.043 19.05 19.05 0 0 1-4.043 3.145 20.15 20.15 0 0 1-4.786 2.011c-1.692.47-3.463.71-5.312.723-1.836 0-3.607-.234-5.312-.703a18.909 18.909 0 0 1-4.766-2.031 21.927 21.927 0 0 1-4.043-3.125 19.06 19.06 0 0 1-3.145-4.043A20.125 20.125 0 0 1 636 20c0-1.836.234-3.607.703-5.313a18.937 18.937 0 0 1 2.031-4.765 21.935 21.935 0 0 1 3.125-4.043 19.052 19.052 0 0 1 4.043-3.145 20.153 20.153 0 0 1 4.786-2.011A20.35 20.35 0 0 1 656 0Zm11.777 13.379-2.656-2.656-12.871 12.87-5.371-5.37-2.656 2.656 8.027 8.027 15.527-15.527Z"/>
  <path stroke="#2E8A99" stroke-width="3" d="M51 18.5h150m62 0h150m62 0h150"/>
</svg>
