<svg width="182" height="138" viewBox="0 0 182 138" fill="none" xmlns="http://www.w3.org/2000/svg">
<rect width="182" height="138" rx="16" fill="#E7E7E7"/>
<path d="M71.019 70.2857L111 53.1429L71.019 36L71 49.3333L99.5714 53.1429L71 56.9524L71.019 70.2857Z" fill="#575757"/>
<path d="M70.3438 101.986C70.2377 101.045 69.8002 100.315 69.0312 99.7983C68.2623 99.2746 67.2945 99.0128 66.1278 99.0128C65.2926 99.0128 64.5701 99.1454 63.9602 99.4105C63.3504 99.669 62.8764 100.027 62.5384 100.484C62.2069 100.935 62.0412 101.449 62.0412 102.026C62.0412 102.509 62.1539 102.927 62.3793 103.278C62.6113 103.63 62.9129 103.925 63.2841 104.163C63.6619 104.395 64.0663 104.591 64.4972 104.75C64.928 104.902 65.3423 105.028 65.7401 105.128L67.7287 105.645C68.3783 105.804 69.0445 106.019 69.7273 106.291C70.41 106.563 71.0431 106.921 71.6264 107.365C72.2098 107.809 72.6804 108.359 73.0384 109.016C73.4029 109.672 73.5852 110.457 73.5852 111.372C73.5852 112.526 73.2869 113.55 72.6903 114.445C72.1004 115.339 71.242 116.045 70.1151 116.562C68.9948 117.08 67.6392 117.338 66.0483 117.338C64.5237 117.338 63.2045 117.096 62.0909 116.612C60.9773 116.128 60.1056 115.442 59.4759 114.554C58.8461 113.659 58.4981 112.598 58.4318 111.372H61.5142C61.5739 112.108 61.8125 112.721 62.2301 113.212C62.6544 113.696 63.1946 114.057 63.8509 114.295C64.5137 114.527 65.2396 114.643 66.0284 114.643C66.8968 114.643 67.669 114.508 68.3452 114.236C69.0279 113.957 69.5649 113.573 69.956 113.082C70.3471 112.585 70.5426 112.005 70.5426 111.342C70.5426 110.739 70.3703 110.245 70.0256 109.861C69.6875 109.476 69.2268 109.158 68.6435 108.906C68.0668 108.654 67.4138 108.432 66.6847 108.24L64.2784 107.584C62.6477 107.14 61.3551 106.487 60.4006 105.625C59.4527 104.763 58.9787 103.623 58.9787 102.205C58.9787 101.031 59.2969 100.007 59.9332 99.1321C60.5696 98.2571 61.4313 97.5777 62.5185 97.0938C63.6056 96.6032 64.8319 96.358 66.1974 96.358C67.5762 96.358 68.7926 96.5999 69.8466 97.0838C70.9072 97.5677 71.7424 98.2339 72.3523 99.0824C72.9621 99.9242 73.2803 100.892 73.3068 101.986H70.3438ZM83.6005 117.308C82.0958 117.308 80.7998 116.987 79.7127 116.344C78.6322 115.694 77.797 114.783 77.207 113.609C76.6237 112.429 76.332 111.047 76.332 109.463C76.332 107.899 76.6237 106.52 77.207 105.327C77.797 104.134 78.619 103.202 79.6729 102.533C80.7335 101.863 81.9731 101.528 83.3917 101.528C84.2534 101.528 85.0887 101.671 85.8974 101.956C86.7061 102.241 87.4319 102.688 88.0749 103.298C88.7179 103.908 89.225 104.7 89.5962 105.675C89.9674 106.643 90.1531 107.819 90.1531 109.205V110.259H78.0124V108.031H87.2397C87.2397 107.249 87.0806 106.556 86.7624 105.953C86.4442 105.343 85.9968 104.863 85.4201 104.511C84.85 104.16 84.1805 103.984 83.4116 103.984C82.5763 103.984 81.8472 104.19 81.2241 104.601C80.6076 105.005 80.1303 105.536 79.7923 106.192C79.4608 106.841 79.2951 107.547 79.2951 108.31V110.05C79.2951 111.071 79.4741 111.939 79.832 112.655C80.1966 113.371 80.7037 113.918 81.3533 114.295C82.003 114.667 82.762 114.852 83.6303 114.852C84.1938 114.852 84.7075 114.773 85.1715 114.614C85.6355 114.448 86.0366 114.203 86.3746 113.878C86.7127 113.553 86.9712 113.152 87.1502 112.675L89.9641 113.182C89.7388 114.01 89.3344 114.736 88.7511 115.359C88.1744 115.976 87.4485 116.456 86.5735 116.801C85.7051 117.139 84.7141 117.308 83.6005 117.308ZM96.4247 107.932V117H93.4517V101.727H96.3054V104.213H96.4943C96.8456 103.404 97.3958 102.755 98.1449 102.264C98.9006 101.774 99.8518 101.528 100.999 101.528C102.039 101.528 102.951 101.747 103.733 102.185C104.515 102.616 105.122 103.259 105.553 104.114C105.983 104.969 106.199 106.026 106.199 107.286V117H103.226V107.643C103.226 106.536 102.938 105.671 102.361 105.048C101.784 104.419 100.992 104.104 99.9844 104.104C99.295 104.104 98.6818 104.253 98.1449 104.551C97.6146 104.849 97.1937 105.287 96.8821 105.864C96.5772 106.434 96.4247 107.123 96.4247 107.932ZM115.903 117.298C114.67 117.298 113.57 116.983 112.602 116.354C111.641 115.717 110.885 114.812 110.335 113.639C109.792 112.459 109.52 111.044 109.52 109.393C109.52 107.743 109.795 106.331 110.345 105.158C110.902 103.984 111.664 103.086 112.632 102.463C113.6 101.84 114.697 101.528 115.923 101.528C116.871 101.528 117.634 101.688 118.21 102.006C118.794 102.317 119.244 102.682 119.562 103.099C119.887 103.517 120.139 103.885 120.318 104.203H120.497V96.6364H123.47V117H120.567V114.624H120.318C120.139 114.948 119.881 115.32 119.543 115.737C119.211 116.155 118.754 116.519 118.17 116.831C117.587 117.143 116.831 117.298 115.903 117.298ZM116.56 114.763C117.415 114.763 118.137 114.537 118.727 114.087C119.324 113.629 119.775 112.996 120.08 112.188C120.391 111.379 120.547 110.437 120.547 109.364C120.547 108.303 120.394 107.375 120.089 106.58C119.785 105.784 119.337 105.164 118.747 104.72C118.157 104.276 117.428 104.054 116.56 104.054C115.665 104.054 114.919 104.286 114.322 104.75C113.726 105.214 113.275 105.847 112.97 106.649C112.672 107.451 112.523 108.356 112.523 109.364C112.523 110.384 112.675 111.303 112.98 112.118C113.285 112.933 113.736 113.58 114.332 114.057C114.936 114.527 115.678 114.763 116.56 114.763Z" fill="#575757"/>
</svg>
