<svg width="182" height="138" viewBox="0 0 182 138" fill="none" xmlns="http://www.w3.org/2000/svg">
<rect width="182" height="138" rx="16" fill="#EDEDED"/>
<path d="M102.756 47.8125L108.365 42.2038C109 44.7657 109 48.32 109 53.5C109 61.7495 109 65.8743 106.436 68.4362C103.876 71 99.7495 71 91.5 71C83.2505 71 79.1258 71 76.562 68.4362C74 65.876 74 61.7495 74 53.5C74 45.2505 74 41.1258 76.562 38.562C79.1275 36 83.2505 36 91.5 36C96.68 36 100.234 36 102.796 36.6352L97.1875 42.244V41.25C97.1875 40.2057 96.7727 39.2042 96.0342 38.4658C95.2958 37.7273 94.2943 37.3125 93.25 37.3125C92.2057 37.3125 91.2042 37.7273 90.4658 38.4658C89.7273 39.2042 89.3125 40.2057 89.3125 41.25V51.75C89.3125 52.7943 89.7273 53.7958 90.4658 54.5342C91.2042 55.2727 92.2057 55.6875 93.25 55.6875H103.75C104.794 55.6875 105.796 55.2727 106.534 54.5342C107.273 53.7958 107.688 52.7943 107.688 51.75C107.688 50.7057 107.273 49.7042 106.534 48.9658C105.796 48.2273 104.794 47.8125 103.75 47.8125H102.756Z" fill="#575757"/>
<path d="M103.749 53.0625C104.097 53.0625 104.431 52.9242 104.677 52.6781C104.923 52.4319 105.062 52.0981 105.062 51.75C105.062 51.4019 104.923 51.0681 104.677 50.8219C104.431 50.5758 104.097 50.4375 103.749 50.4375H96.4165L108.177 38.6775C108.408 38.4287 108.535 38.0996 108.529 37.7596C108.523 37.4196 108.385 37.0951 108.144 36.8547C107.904 36.6142 107.579 36.4764 107.239 36.4704C106.899 36.4644 106.57 36.5907 106.322 36.8225L94.5615 48.5825V41.25C94.5615 40.9019 94.4232 40.5681 94.1771 40.3219C93.931 40.0758 93.5971 39.9375 93.249 39.9375C92.9009 39.9375 92.5671 40.0758 92.3209 40.3219C92.0748 40.5681 91.9365 40.9019 91.9365 41.25V51.75C91.9365 52.4745 92.5245 53.0625 93.249 53.0625H103.749Z" fill="#575757"/>
<path d="M46.233 93.2812V90.6364H61.9929V93.2812H55.6392V111H52.5767V93.2812H46.233ZM69.4553 111.308C68.0234 111.308 66.7739 110.98 65.7067 110.324C64.6394 109.668 63.8108 108.75 63.2209 107.57C62.6309 106.39 62.3359 105.011 62.3359 103.433C62.3359 101.849 62.6309 100.464 63.2209 99.277C63.8108 98.0904 64.6394 97.169 65.7067 96.5128C66.7739 95.8565 68.0234 95.5284 69.4553 95.5284C70.8871 95.5284 72.1366 95.8565 73.2038 96.5128C74.2711 97.169 75.0997 98.0904 75.6896 99.277C76.2796 100.464 76.5746 101.849 76.5746 103.433C76.5746 105.011 76.2796 106.39 75.6896 107.57C75.0997 108.75 74.2711 109.668 73.2038 110.324C72.1366 110.98 70.8871 111.308 69.4553 111.308ZM69.4652 108.812C70.3932 108.812 71.1622 108.567 71.772 108.077C72.3819 107.586 72.8326 106.933 73.1243 106.118C73.4226 105.303 73.5717 104.404 73.5717 103.423C73.5717 102.449 73.4226 101.554 73.1243 100.739C72.8326 99.9167 72.3819 99.2571 71.772 98.7599C71.1622 98.2628 70.3932 98.0142 69.4652 98.0142C68.5305 98.0142 67.755 98.2628 67.1385 98.7599C66.5286 99.2571 66.0746 99.9167 65.7763 100.739C65.4846 101.554 65.3388 102.449 65.3388 103.423C65.3388 104.404 65.4846 105.303 65.7763 106.118C66.0746 106.933 66.5286 107.586 67.1385 108.077C67.755 108.567 68.5305 108.812 69.4652 108.812ZM79.8931 116.727V95.7273H82.7965V98.2031H83.0451C83.2174 97.8849 83.466 97.517 83.7908 97.0994C84.1156 96.6818 84.5664 96.3172 85.1431 96.0057C85.7198 95.6875 86.4821 95.5284 87.43 95.5284C88.663 95.5284 89.7634 95.84 90.7312 96.4631C91.699 97.0862 92.458 97.9844 93.0082 99.1577C93.565 100.331 93.8434 101.743 93.8434 103.393C93.8434 105.044 93.5683 106.459 93.0181 107.639C92.4679 108.812 91.7122 109.717 90.7511 110.354C89.7899 110.983 88.6928 111.298 87.4599 111.298C86.5318 111.298 85.7728 111.143 85.1829 110.831C84.5996 110.519 84.1422 110.155 83.8107 109.737C83.4793 109.32 83.2241 108.948 83.0451 108.624H82.8661V116.727H79.8931ZM82.8065 103.364C82.8065 104.437 82.9622 105.379 83.2738 106.188C83.5853 106.996 84.0361 107.629 84.6261 108.087C85.216 108.537 85.9386 108.763 86.7937 108.763C87.6819 108.763 88.4244 108.527 89.021 108.057C89.6175 107.58 90.0683 106.933 90.3732 106.118C90.6848 105.303 90.8406 104.384 90.8406 103.364C90.8406 102.356 90.6881 101.451 90.3832 100.649C90.0849 99.8471 89.6341 99.214 89.0309 98.75C88.4343 98.286 87.6886 98.054 86.7937 98.054C85.9319 98.054 85.2028 98.276 84.6062 98.7202C84.0162 99.1643 83.5688 99.7841 83.2638 100.58C82.9589 101.375 82.8065 102.303 82.8065 103.364ZM114.259 104.666V95.7273H117.242V111H114.319V108.355H114.16C113.808 109.17 113.245 109.85 112.469 110.393C111.701 110.93 110.743 111.199 109.596 111.199C108.615 111.199 107.746 110.983 106.991 110.553C106.242 110.115 105.652 109.469 105.221 108.614C104.797 107.759 104.585 106.701 104.585 105.442V95.7273H107.558V105.084C107.558 106.125 107.846 106.953 108.423 107.57C108.999 108.186 109.748 108.494 110.67 108.494C111.227 108.494 111.78 108.355 112.33 108.077C112.887 107.798 113.348 107.377 113.712 106.814C114.084 106.25 114.266 105.535 114.259 104.666ZM121.237 116.727V95.7273H124.14V98.2031H124.389C124.561 97.8849 124.81 97.517 125.135 97.0994C125.459 96.6818 125.91 96.3172 126.487 96.0057C127.064 95.6875 127.826 95.5284 128.774 95.5284C130.007 95.5284 131.107 95.84 132.075 96.4631C133.043 97.0862 133.802 97.9844 134.352 99.1577C134.909 100.331 135.187 101.743 135.187 103.393C135.187 105.044 134.912 106.459 134.362 107.639C133.812 108.812 133.056 109.717 132.095 110.354C131.134 110.983 130.037 111.298 128.804 111.298C127.876 111.298 127.117 111.143 126.527 110.831C125.943 110.519 125.486 110.155 125.154 109.737C124.823 109.32 124.568 108.948 124.389 108.624H124.21V116.727H121.237ZM124.15 103.364C124.15 104.437 124.306 105.379 124.618 106.188C124.929 106.996 125.38 107.629 125.97 108.087C126.56 108.537 127.282 108.763 128.137 108.763C129.026 108.763 129.768 108.527 130.365 108.057C130.961 107.58 131.412 106.933 131.717 106.118C132.029 105.303 132.184 104.384 132.184 103.364C132.184 102.356 132.032 101.451 131.727 100.649C131.429 99.8471 130.978 99.214 130.375 98.75C129.778 98.286 129.032 98.054 128.137 98.054C127.276 98.054 126.547 98.276 125.95 98.7202C125.36 99.1643 124.913 99.7841 124.608 100.58C124.303 101.375 124.15 102.303 124.15 103.364Z" fill="#575757"/>
</svg>
