<svg width="182" height="138" viewBox="0 0 182 138" fill="none" xmlns="http://www.w3.org/2000/svg">
<rect width="182" height="138" rx="16" fill="#EDEDED"/>
<mask id="mask0_185_259" style="mask-type:luminance" maskUnits="userSpaceOnUse" x="76" y="35" width="30" height="37">
<path d="M79.625 69.5H102.375C102.806 69.5 103.219 69.3288 103.524 69.024C103.829 68.7193 104 68.306 104 67.875V45.125H95.875V37H79.625C79.194 37 78.7807 37.1712 78.476 37.476C78.1712 37.7807 78 38.194 78 38.625V67.875C78 68.306 78.1712 68.7193 78.476 69.024C78.7807 69.3288 79.194 69.5 79.625 69.5Z" fill="white" stroke="white" stroke-width="4" stroke-linecap="round" stroke-linejoin="round"/>
<path d="M95.875 37L104 45.125" stroke="white" stroke-width="4" stroke-linecap="round" stroke-linejoin="round"/>
<path d="M88.5625 54.0625L84.5 58.125L88.5625 62.1875" stroke="black" stroke-width="4" stroke-linecap="round" stroke-linejoin="round"/>
<path d="M84.5 58.125H97.5V51.625" stroke="black" stroke-width="4" stroke-linecap="round" stroke-linejoin="round"/>
</mask>
<g mask="url(#mask0_185_259)">
<path d="M71.5 33.75H110.5V72.75H71.5V33.75Z" fill="#575757"/>
</g>
<path d="M32.2244 111L26.5767 90.6364H29.8082L33.7756 106.406H33.9645L38.0909 90.6364H41.2926L45.419 106.416H45.608L49.5653 90.6364H52.8068L47.1491 111H44.0568L39.7713 95.7472H39.6122L35.3267 111H32.2244ZM55.3697 111V95.7273H58.3427V111H55.3697ZM56.8711 93.3707C56.354 93.3707 55.9099 93.1984 55.5387 92.8537C55.1741 92.5024 54.9918 92.0848 54.9918 91.6009C54.9918 91.1103 55.1741 90.6927 55.5387 90.348C55.9099 89.9967 56.354 89.821 56.8711 89.821C57.3881 89.821 57.829 89.9967 58.1935 90.348C58.5647 90.6927 58.7504 91.1103 58.7504 91.6009C58.7504 92.0848 58.5647 92.5024 58.1935 92.8537C57.829 93.1984 57.3881 93.3707 56.8711 93.3707ZM69.4716 95.7273V98.1136H61.1293V95.7273H69.4716ZM63.3665 92.0682H66.3395V106.516C66.3395 107.092 66.4257 107.527 66.598 107.818C66.7704 108.103 66.9924 108.299 67.2642 108.405C67.5426 108.504 67.8442 108.554 68.169 108.554C68.4077 108.554 68.6165 108.537 68.7955 108.504C68.9744 108.471 69.1136 108.445 69.2131 108.425L69.75 110.881C69.5777 110.947 69.3324 111.013 69.0142 111.08C68.696 111.152 68.2983 111.192 67.821 111.199C67.0388 111.212 66.3097 111.073 65.6335 110.781C64.9574 110.49 64.4105 110.039 63.9929 109.429C63.5753 108.819 63.3665 108.054 63.3665 107.132V92.0682ZM76.0614 101.932V111H73.0884V90.6364H76.0217V98.2131H76.2106C76.5685 97.3911 77.1154 96.7382 77.8512 96.2543C78.587 95.7704 79.5482 95.5284 80.7347 95.5284C81.7821 95.5284 82.6969 95.7438 83.479 96.1747C84.2679 96.6056 84.8777 97.2486 85.3086 98.1037C85.7461 98.9522 85.9648 100.013 85.9648 101.286V111H82.9918V101.643C82.9918 100.523 82.7035 99.6548 82.1268 99.0384C81.5501 98.4152 80.748 98.1037 79.7205 98.1037C79.0179 98.1037 78.3881 98.2528 77.8313 98.5511C77.2811 98.8494 76.8469 99.2869 76.5288 99.8636C76.2172 100.434 76.0614 101.123 76.0614 101.932ZM95.6495 111.298C94.4165 111.298 93.3162 110.983 92.3484 110.354C91.3872 109.717 90.6315 108.812 90.0813 107.639C89.5378 106.459 89.266 105.044 89.266 103.393C89.266 101.743 89.5411 100.331 90.0913 99.1577C90.6481 97.9844 91.4104 97.0862 92.3782 96.4631C93.346 95.84 94.4431 95.5284 95.6694 95.5284C96.6173 95.5284 97.3796 95.6875 97.9563 96.0057C98.5397 96.3172 98.9904 96.6818 99.3086 97.0994C99.6334 97.517 99.8853 97.8849 100.064 98.2031H100.243V90.6364H103.216V111H100.313V108.624H100.064C99.8853 108.948 99.6268 109.32 99.2887 109.737C98.9573 110.155 98.4999 110.519 97.9165 110.831C97.3332 111.143 96.5775 111.298 95.6495 111.298ZM96.3058 108.763C97.1609 108.763 97.8834 108.537 98.4734 108.087C99.07 107.629 99.5207 106.996 99.8256 106.188C100.137 105.379 100.293 104.437 100.293 103.364C100.293 102.303 100.141 101.375 99.8356 100.58C99.5307 99.7841 99.0832 99.1643 98.4933 98.7202C97.9033 98.276 97.1741 98.054 96.3058 98.054C95.4109 98.054 94.6651 98.286 94.0685 98.75C93.4719 99.214 93.0212 99.8471 92.7163 100.649C92.418 101.451 92.2688 102.356 92.2688 103.364C92.2688 104.384 92.4213 105.303 92.7262 106.118C93.0311 106.933 93.4819 107.58 94.0785 108.057C94.6817 108.527 95.4241 108.763 96.3058 108.763ZM107.46 111V95.7273H110.333V98.1534H110.492C110.771 97.3314 111.261 96.6851 111.964 96.2145C112.673 95.7372 113.475 95.4986 114.37 95.4986C114.556 95.4986 114.774 95.5052 115.026 95.5185C115.285 95.5317 115.487 95.5483 115.633 95.5682V98.4119C115.513 98.3788 115.301 98.3423 114.996 98.3026C114.692 98.2562 114.387 98.233 114.082 98.233C113.379 98.233 112.753 98.3821 112.202 98.6804C111.659 98.9721 111.228 99.3797 110.91 99.9034C110.592 100.42 110.433 101.01 110.433 101.673V111H107.46ZM122.513 111.338C121.546 111.338 120.671 111.159 119.888 110.801C119.106 110.437 118.487 109.91 118.029 109.22C117.578 108.531 117.353 107.686 117.353 106.685C117.353 105.823 117.519 105.114 117.85 104.557C118.182 104 118.629 103.559 119.192 103.234C119.756 102.91 120.386 102.664 121.082 102.499C121.778 102.333 122.487 102.207 123.21 102.121C124.124 102.015 124.867 101.929 125.437 101.862C126.007 101.789 126.421 101.673 126.68 101.514C126.938 101.355 127.067 101.097 127.067 100.739V100.669C127.067 99.8007 126.822 99.1278 126.332 98.6506C125.848 98.1733 125.125 97.9347 124.164 97.9347C123.163 97.9347 122.374 98.1567 121.798 98.6009C121.228 99.0384 120.833 99.5256 120.614 100.062L117.82 99.4261C118.152 98.4981 118.636 97.7491 119.272 97.179C119.915 96.6023 120.654 96.1847 121.489 95.9261C122.325 95.661 123.203 95.5284 124.124 95.5284C124.734 95.5284 125.38 95.6013 126.063 95.7472C126.753 95.8864 127.396 96.1449 127.992 96.5227C128.595 96.9006 129.089 97.4408 129.474 98.1435C129.858 98.8395 130.05 99.7443 130.05 100.858V111H127.147V108.912H127.028C126.835 109.296 126.547 109.674 126.163 110.045C125.778 110.417 125.284 110.725 124.681 110.97C124.078 111.215 123.355 111.338 122.513 111.338ZM123.16 108.952C123.982 108.952 124.684 108.789 125.268 108.464C125.858 108.14 126.305 107.715 126.61 107.192C126.922 106.661 127.077 106.095 127.077 105.491V103.523C126.971 103.629 126.766 103.728 126.461 103.821C126.163 103.907 125.821 103.983 125.437 104.05C125.052 104.109 124.678 104.166 124.313 104.219C123.949 104.265 123.644 104.305 123.398 104.338C122.822 104.411 122.295 104.534 121.817 104.706C121.347 104.878 120.969 105.127 120.684 105.452C120.406 105.77 120.266 106.194 120.266 106.724C120.266 107.46 120.538 108.017 121.082 108.395C121.625 108.766 122.318 108.952 123.16 108.952ZM137.321 111L132.827 95.7273H135.9L138.892 106.943H139.042L142.044 95.7273H145.117L148.1 106.893H148.249L151.222 95.7273H154.294L149.81 111H146.777L143.675 99.973H143.446L140.344 111H137.321Z" fill="#575757"/>
</svg>
